<svg height="120" viewBox="0 0 650 120" width="650" xmlns="http://www.w3.org/2000/svg"><g fill="#2cfffe" fill-rule="evenodd"><path d="m241.322346 49.1683308h10.536541v63.2165412l7.023158 7.023158 7.024963-7.023158 10.534736-10.536541-3.511579-3.5124814-7.023157 7.0240604v-56.1924814l14.047218-14.0472181h-14.047218v-10.5356391z"/><path d="m495.250647 24.5841203v14.0481203l-10.535639 10.5356391h10.535639v63.2174433l7.02406 7.023158 7.02406-7.023158v-63.2174433l14.04812-14.047218h-14.04812v-10.5365414-14.0490226z"/><path d="m519.834857-.00009023-10.535639 10.53563913 10.535639 10.5356391 10.535639-10.5356391z"/><path d="m331.430075 17.5592481 7.02406 7.0249624v80.7762405l14.048121 14.04812 10.536541-10.536541-10.536541-10.535639v-52.68-10.5365414-17.5606015l-10.536542-10.53563908z"/><path d="m352.502526 45.656391 10.535639 10.5356391v52.6799999l14.048121-14.0481202v-45.6559399l-14.048121-14.0481203z"/><path d="m44.2816241 12.3947368 7.3795488 7.3795489v18.36l-18.3590977 18.3590978v-25.6484211-18.4502256l-11.0706767-11.07067665-.0451128.04601504-.0451128-.04601504-22.14135335 22.14135335 3.78135338 3.7813534 11.06977447-11.0706767 3.6911278 3.6902256v92.1609022l7.3795489 7.381353 7.3804511-7.381353v-39.6315789l18.3590977-18.3590977v32.16 18.4511276l14.76 14.760902 7.3813534-7.381353 3.6902256-3.689323 7.3795489-7.380451-3.6893234-3.690226-7.3804511 7.380451-7.3813534-7.380451v-11.0706766-55.351579-14.76-3.6902256l-11.0697744-11.07067665z"/><path d="m611.067248 49.1683308h10.535639v63.2165412l7.02406 7.023158 7.024061-7.023158 10.535639-10.536541-3.511579-3.5124814-7.02406 7.0240604v-56.1924814l14.04812-14.0472181h-14.04812v-10.5356391z"/><path d="m285.793985 59.703609v45.65594l14.04812 14.049022 10.535639-10.536541-10.535639-10.535639v-52.68z"/><path d="m299.842195 45.656391 10.536542 10.5356391v52.6799999l14.04812-14.0481202v-45.6559399l-14.04812-14.0481203z"/><path d="m403.978466 45.6563008-14.04812 14.047218v45.6568422l14.04812 14.04812 7.02406-7.023158 3.511579-3.513383 10.536542-10.5356392-3.512482-3.5124813-10.535639 10.5365415-7.02406-7.0240602v-24.7578948l24.497143-24.4971428-13.961504-13.9606015zm0 0 10.449023 10.4490225-10.449023 10.4490226z"/><path d="m93.7910977 59.703609v45.65594l14.0481203 14.049022 10.535639-10.536541-10.535639-10.535639v-52.68z"/><path d="m107.839218 45.6563008 10.535639 10.535639v52.6800002l10.536541 10.536541 10.53564-10.536541-7.024061-7.02406v-52.6800003l-14.04812-14.047218z"/><path d="m148.886526 59.703609v45.65594l14.047218 14.049022 7.024061-7.02406 3.512481-3.512481 10.535639-10.535639-3.511579-3.5124812-10.536541 10.5356392-7.024061-7.023158v-52.68z"/><path d="m162.934105 45.556782 10.535639 10.5365413 10.535639-10.5365413-10.535639-10.5356391z"/><path d="m220.270105 35.1200301-10.535639 10.5365413 10.535639 10.5347369 10.536542-10.5347369z"/><path d="m209.734376 66.7284812 7.023158 7.0240602v38.6318796l7.024962 7.02406 7.02406-7.02406v-45.6559398l-10.535639-10.5365414z"/><path d="m188.662195 17.5592481 7.024061 7.0249624v87.8003005l7.02406 7.02406 7.02406-7.02406v-45.6559396-21.0721804-10.5365414-17.5606015l-10.536541-10.53563908z"/><path d="m542.030887 45.6563008-14.04812 14.047218v45.6568422l14.04812 14.04812 7.02406-7.023158 3.512482-3.513383 10.535639-10.5356392-3.511579-3.5124813-10.536542 10.5365415-7.02406-7.0240602v-24.7578948l24.497143-24.4971428-13.960601-13.9606015zm0 0 10.449023 10.4490225-10.449023 10.4490226z"/><path d="m456.638617 45.656391 10.535639 10.5356391 10.536541-10.5356391-10.536541-10.5365414z"/><path d="m435.566436 45.6563008 7.02406 7.0231578v10.5365414 10.5365414 38.6327816l7.02406 7.023158 7.024061-7.023158v-38.6327816-10.5365414-17.5596992l-10.536542-10.5356391z"/><path d="m575.946947 108.87203 10.535639 10.536541 10.53564-10.536541-10.53564-10.535639z"/><path d="m607.554947 45.656391-10.536541-10.5365414-10.535639 10.5365414 10.535639 10.5356391z"/><path d="m575.946947 56.1917594v14.0481203l21.071279 21.0721805v17.5606018l10.536541-10.5365417v-17.5606015l-1.75579-1.7548872-8.780751-8.7807519-10.53564-10.5356391v-14.0481203z"/></g></svg>